<svg id="github" xmlns="http://www.w3.org/2000/svg" xmlns:xlink="http://www.w3.org/1999/xlink" viewBox="0 0 129 20" shape-rendering="geometricPrecision" text-rendering="geometricPrecision" width="129" height="20">
  <defs>
    <linearGradient id="github-workflow-bg-fill" x1="0.5" y1="0" x2="0.5" y2="1" spreadMethod="pad" gradientUnits="objectBoundingBox" gradientTransform="translate(0 0)">
      <stop id="github-workflow-bg-fill-0" offset="0%" stop-color="#444d56"/><stop id="github-workflow-bg-fill-1" offset="100%" stop-color="#24292e"/>
    </linearGradient>
    <linearGradient id="github-state-bg-fill" x1="0.5" y1="0" x2="0.5" y2="1" spreadMethod="pad" gradientUnits="objectBoundingBox" gradientTransform="translate(0 0)">
      <stop id="github-state-bg-fill-0" offset="0%" stop-color="#68d73a"/><stop id="github-state-bg-fill-1" offset="100%" stop-color="#24cb52"/>
    </linearGradient>
  </defs>
  <g id="github-g1">
    <path id="github-workflow-bg" d="M0,3C0,1.3431,1.3552,0,3.027027,0L82,0v20h-78.972973C1.3552,20,0,18.6569,0,17L0,3Z" fill="url(#github-workflow-bg-fill)"/>
    <text id="github-text1" dx="0" dy="0" font-family="&quot;DejaVu Sans, Verdana, Geneva, sans-serif&quot;" font-size="11" font-weight="400" fill="#fff" fill-rule="evenodd">
      <tspan id="github-tspan1" x="22.198198" y="14" font-family="&quot;DejaVu Sans, Verdana, Geneva, sans-serif&quot;" font-size="11" font-weight="400" font-style="normal" fill="#fff" fill-rule="evenodd">
        <![CDATA[pHoney]]>
      </tspan>
    </text>
    <path id="github-state-bg" d="M0,0h40.47C41.869,0,43,1.343,43,3v14c0,1.657-1.132,3-2.53,3L0,20L0,0Z" transform="matrix(1.345981 0 0 1 71.023726 0)" fill="url(#github-state-bg-fill)"/>
    <text id="github-text2" dx="0" dy="0" font-family="&quot;DejaVu Sans, Verdana, Geneva, sans-serif&quot;" font-size="11" font-weight="400" transform="translate(72.083952-.28068)" fill="#fff" fill-rule="evenodd">
      <tspan id="github-tspan2" x="5" y="14" font-family="&quot;DejaVu Sans, Verdana, Geneva, sans-serif&quot;" font-size="11" font-weight="400" font-style="normal" fill="#fff" fill-rule="evenodd">
        <![CDATA[Download]]>
      </tspan>
    </text>
    <path id="github-path1" d="M11,3C7.132,3,4,6.132,4,10c-.001394,3.013386,1.926917,5.689087,4.786,6.641.35.062.482-.148.482-.332c0-.166-.01-.718-.01-1.304-1.758.324-2.213-.429-2.353-.822-.079-.202-.42-.823-.717-.99-.245-.13-.595-.454-.01-.463.552-.009.946.508,1.077.718.63,1.058,1.636.76,2.039.577.061-.455.245-.761.446-.936-1.557-.175-3.185-.779-3.185-3.456c0-.762.271-1.392.718-1.882-.07-.175-.315-.892.07-1.855c0,0,.586-.183,1.925.718.569882-.157906,1.158647-.237305,1.75-.236.591353-.001305,1.180118.078094,1.75.236c1.338-.91,1.925-.718,1.925-.718.385.963.14,1.68.07,1.855.446.49.717,1.112.717,1.882c0,2.686-1.636,3.28-3.194,3.456.254.219.473.639.473,1.295c0,.936-.009,1.689-.009,1.925c0,.184.131.402.481.332C16.080474,15.679287,17.999203,13.00739,18,10c0-3.867-3.133-7-7-7Z" fill="#959da5" fill-rule="evenodd"/>
  </g>
</svg>